<?xml version="1.0" encoding="utf-8"?>
<!-- Generator: Adobe Illustrator 24.3.0, SVG Export Plug-In . SVG Version: 6.00 Build 0)  -->
<svg version="1.1" xmlns="http://www.w3.org/2000/svg" xmlns:xlink="http://www.w3.org/1999/xlink" x="0px" y="0px"
	 viewBox="0 0 400 400.3" style="enable-background:new 0 0 400 400.3;" xml:space="preserve">
<style type="text/css">
	.st0{fill:#FFFFFF;}
	.st1{fill:#FFFFFF;stroke:#FFFFFF;stroke-miterlimit:10;}
</style>
<g id="Layer_2">
</g>
<g id="Layer_1">
	<g>
	</g>
</g>
<g id="Layer_3">
	<g>
		<g>
			<path class="st0" d="M284.5,30.5c47.1,0,85.5,38.4,85.5,85.5v169c0,47.1-38.4,85.5-85.5,85.5h-169C68.4,370.5,30,332.2,30,285
				V116c0-47.1,38.4-85.5,85.5-85.5H284.5 M284.5,0.5h-169C51.7,0.5,0,52.2,0,116v169c0,63.8,51.7,115.5,115.5,115.5h169
				c63.8,0,115.5-51.7,115.5-115.5V116C400,52.2,348.3,0.5,284.5,0.5L284.5,0.5z"/>
		</g>
		<circle class="st1" cx="306.8" cy="93.5" r="23.2"/>
		<g>
			<path class="st0" d="M200,128.3c39.8,0,72.2,32.4,72.2,72.2c0,39.8-32.4,72.2-72.2,72.2s-72.2-32.4-72.2-72.2
				C127.8,160.7,160.2,128.3,200,128.3 M200,98.3c-56.5,0-102.2,45.8-102.2,102.2c0,56.5,45.8,102.2,102.2,102.2
				c56.5,0,102.2-45.8,102.2-102.2C302.2,144.1,256.5,98.3,200,98.3L200,98.3z"/>
		</g>
	</g>
</g>
</svg>
