<?xml version="1.0" encoding="utf-8"?>
<!-- Generator: Adobe Illustrator 24.3.0, SVG Export Plug-In . SVG Version: 6.00 Build 0)  -->
<svg version="1.1" xmlns="http://www.w3.org/2000/svg" xmlns:xlink="http://www.w3.org/1999/xlink" x="0px" y="0px"
	 viewBox="0 0 350.9 347.2" style="enable-background:new 0 0 350.9 347.2;" xml:space="preserve">
<style type="text/css">
	.st0{fill:#FEFEFE;}
	.st1{fill:#BE925B;}
</style>
<g id="Layer_2">
</g>
<g id="Layer_1">
	<g>
	</g>
</g>
<g id="Layer_3">
	<g>
		<path class="st0" d="M227.8,347.2c0.3-0.9,0.4-1,0.4-1.2c0-98.6,0-197.3,0.1-295.9c0-1.9-0.7-2.9-2-3.5
			c-8.7-4.1-17.4-8.1-26.1-12.1C176.7,23.6,153,12.8,129.4,1.8c-6-2.8-5.9-3-5.9,3.6c0,87.9,0,175.7,0,263.6c0,5.1-1.7,11,0.2,15.2
			c2.1,4.5,8.4,6.1,12.9,8.9c1.9,1.3,3.8,2.6,5.8,3.8c19.9,12,39.8,24,59.6,36C210.3,338,218.6,343.1,227.8,347.2z M0.8,347.4
			c1.6,0.4,2.3-0.4,3.1-0.9c31-18.6,61.9-37.5,93-55.8c6.1-3.6,10.2-6.8,7.8-14.4c-0.4-1.4-0.1-3-0.1-4.5c0-44.5-0.2-89-0.1-133.5
			C104.8,92.3,104,46.2,105,0C94.3,3.5,84.2,8.7,74,13.5c-23.5,11-46.9,21.9-70.4,32.8c-2.8,1.3-4,2.8-3.5,6.1
			c0.6,3.9,0.7,7.9,0.7,11.9c0.1,45.6,0.1,91.3,0.1,136.9c0,38,0,76.1,0,114.1C0.8,326,0.8,336.8,0.8,347.4z M246.6,347.3
			c4-0.5,6.4-3.1,9.4-4.8c30.5-17.8,60.6-36.3,90.9-54.5c3.5-2.1,4.1-4,4.1-7.5c-0.1-79.4-0.1-158.8-0.1-238.2c0-13.9,0-27.7,0-42.2
			c-4.5,1.8-8.7,3.3-12.7,5.2c-28.5,13-56.9,26.3-85.4,39.1c-4.3,1.9-5.8,3.7-5.8,8.7c0.2,96.2,0.2,192.3,0.2,288.5
			C247.1,343.2,246.8,345,246.6,347.3z"/>
		<path class="st1" d="M227.8,347.2c-9.2-4.1-17.5-9.2-25.9-14.2c-19.9-12-39.7-24-59.6-36c-2-1.2-3.9-2.6-5.8-3.8
			c-4.5-2.9-10.8-4.5-12.9-8.9c-1.9-4.2-0.2-10-0.2-15.2c0-87.9,0-175.7,0-263.6c0-6.6-0.1-6.4,5.9-3.6
			c23.6,10.9,47.3,21.8,70.9,32.6c8.7,4,17.4,8,26.1,12.1c1.3,0.6,2,1.6,2,3.5c-0.1,98.6-0.1,197.3-0.1,295.9
			C228.2,346.1,228.1,346.3,227.8,347.2z"/>
		<path class="st1" d="M0.8,347.4c0-10.6,0-21.4,0-32.1c0-38,0-76.1,0-114.1c0-45.6,0-91.3-0.1-136.9c0-4-0.1-8-0.7-11.9
			c-0.5-3.2,0.7-4.8,3.5-6.1C27.1,35.4,50.5,24.4,74,13.5C84.2,8.7,94.3,3.5,105,0c-1,46.2-0.2,92.3-0.4,138.5
			c-0.2,44.5,0,89,0.1,133.5c0,1.5-0.3,3.1,0.1,4.5c2.4,7.6-1.7,10.8-7.8,14.4c-31.2,18.3-62.1,37.1-93,55.8
			C3.1,347,2.4,347.8,0.8,347.4z"/>
		<path class="st1" d="M246.6,347.3c0.2-2.3,0.5-4,0.5-5.8c0-96.2,0.1-192.3-0.2-288.5c0-5,1.5-6.8,5.8-8.7
			c28.6-12.8,56.9-26.1,85.4-39.1c4-1.8,8.2-3.4,12.7-5.2c0,14.5,0,28.3,0,42.2c0,79.4,0,158.8,0.1,238.2c0,3.5-0.6,5.4-4.1,7.5
			c-30.2,18.3-60.4,36.7-90.9,54.5C253,344.2,250.6,346.8,246.6,347.3z"/>
	</g>
</g>
</svg>
