<?xml version="1.0" encoding="utf-8"?>
<!-- Generator: Adobe Illustrator 24.3.0, SVG Export Plug-In . SVG Version: 6.00 Build 0)  -->
<svg version="1.1" xmlns="http://www.w3.org/2000/svg" xmlns:xlink="http://www.w3.org/1999/xlink" x="0px" y="0px"
	 viewBox="0 0 350.9 347.2" style="enable-background:new 0 0 350.9 347.2;" xml:space="preserve">
<style type="text/css">
	.st0{fill:#FEFEFE;}
	.st1{fill:#BE925B;}
</style>
<g id="Layer_2">
</g>
<g id="Layer_1">
	<g>
	</g>
</g>
<g id="Layer_3">
	<g>
		<path class="st0" d="M253.4,346.6c13.6-0.2,26,0.8,38.1-3c13.3-4.1,26.5-8.5,36.9-18.4c12.2-11.5,19.2-25.9,21.1-42.4
			c1.4-12.2-1.2-23.2-12.8-30c-21.1-12.3-42.2-24.6-63.5-36.5c-6.7-3.8-14.1-3.6-21-0.1c-5.8,2.9-10.6,7.3-14.7,12.5
			c-4.1,5.3-8,10.6-12.3,15.7c-2.7,3.1-5.4,6.2-9.1,8.4c-3,1.8-5.7,2.6-9.2,0.7c-4.3-2.4-8.8-4.6-13.1-7
			c-29.7-16.9-54.1-39.7-74.5-67c-7.3-9.8-13.5-20.4-19.9-30.8c-4.5-7.3-4.2-11,1.5-17.4c2.5-2.8,5.4-5.3,8.4-7.5
			c7.5-5.4,15.1-10.7,21.2-17.6c5.8-6.6,9.1-14,6.7-23.1c-0.9-3.4-3.7-5.3-5.2-8.2c-9.4-18.7-20.8-36.2-31.3-54.2
			c-3.5-6.1-5.7-13.9-11.7-17.5c-6.1-3.7-14-1.7-21-1.3C51.4,2.7,36.9,9.4,25,21.4C7.2,39.4,1.8,62,0.8,86.2
			c-0.7,17.9,2.5,35.2,7.7,52.1c9.8,31.6,26.4,59.4,46.5,85.5c14.8,19.3,31.3,37,49.5,53c24.5,21.6,52.1,38.8,81,53.7
			c12.3,6.4,25.4,11.2,38.9,14.5C234.4,347.6,244.5,346,253.4,346.6z"/>
		<path class="st1" d="M253.4,346.6c-8.8-0.6-19,1-29-1.5c-13.5-3.4-26.6-8.2-38.9-14.5c-28.9-14.9-56.5-32.1-81-53.7
			c-18.2-16-34.7-33.7-49.5-53c-20-26.1-36.7-53.9-46.5-85.5c-5.3-17-8.5-34.3-7.7-52.1C1.8,62,7.2,39.4,25,21.4
			C36.9,9.4,51.4,2.7,68.2,1.7c7-0.4,14.9-2.4,21,1.3c6,3.6,8.1,11.5,11.7,17.5c10.5,18,21.9,35.6,31.3,54.2
			c1.4,2.9,4.3,4.8,5.2,8.2c2.4,9.1-0.9,16.6-6.7,23.1c-6.2,6.9-13.7,12.2-21.2,17.6c-3,2.2-5.9,4.7-8.4,7.5c-5.7,6.4-6,10-1.5,17.4
			c6.4,10.4,12.6,21,19.9,30.8c20.3,27.3,44.8,50.1,74.5,67c4.3,2.5,8.8,4.6,13.1,7c3.5,1.9,6.2,1.1,9.2-0.7
			c3.6-2.2,6.4-5.3,9.1-8.4c4.3-5.1,8.2-10.5,12.3-15.7c4-5.2,8.9-9.5,14.7-12.5c6.9-3.5,14.3-3.6,21,0.1
			c21.3,12,42.4,24.3,63.5,36.5c11.6,6.8,14.2,17.8,12.8,30c-1.9,16.6-9,30.9-21.1,42.4c-10.4,9.9-23.6,14.3-36.9,18.4
			C279.3,347.4,266.9,346.4,253.4,346.6z"/>
	</g>
</g>
</svg>
