<?xml version="1.0" encoding="utf-8"?>
<!-- Generator: Adobe Illustrator 24.3.0, SVG Export Plug-In . SVG Version: 6.00 Build 0)  -->
<svg version="1.1" xmlns="http://www.w3.org/2000/svg" xmlns:xlink="http://www.w3.org/1999/xlink" x="0px" y="0px"
	 viewBox="0 0 400 400" style="enable-background:new 0 0 400 400;" xml:space="preserve">
<style type="text/css">
	.st0{fill:#FEFEFE;}
	.st1{fill:#BE925B;}
</style>
<g id="Layer_2">
</g>
<g id="Layer_1">
	<g>
	</g>
</g>
<g id="Layer_3">
	<g>
		<path class="st0" d="M288,113.5c0.3,0.3,0.6,0.5,0.9,0.8c-0.7,1.1-1.2,2.4-2,3.4c-15.4,22-30.9,44-46.3,66
			c-13.5,19.3-26.9,38.7-40.3,58.1c-6.5,9.4-13.1,18.8-19.7,28.2c-1.8,2.6-2.3,4.8-0.9,8.2c5.8,13.6,12.8,26.5,19,39.8
			c10.6,22.7,21.3,45.3,32.6,67.7c3.9,7.7,7,13.9,17.2,12.4c3.9-0.6,6.4-1.7,7.8-5.5c6.8-17.6,13.8-35.1,20.5-52.7
			c11.9-31.3,23.4-62.7,35.3-94c12.9-34.1,26-68.2,39-102.2c13.5-35.3,27.1-70.5,40.5-105.8c3.3-8.8,7.8-17.3,7.3-27.1
			c-0.3-5.7-3.2-8.4-9-8.7c-9.6-0.5-17.7,4.4-26,7.6C324.1,25.2,284,40,244.2,55.8c-38.5,15.4-77.3,29.8-116,44.6
			c-26.1,10-52.3,20-78.4,30.1c-14.5,5.6-29.5,10.1-43.3,17.5c-1.6,0.8-2.3,1.7-2.7,3.5c-2.1,8,0.4,13.6,7.7,17.1
			c19.9,9.4,39.9,18.7,59.7,28.3c17.9,8.6,35.8,17.4,53.7,26.1c1.9,0.9,3.5,1.7,5.9,0.1c26.5-18.6,53.1-36.9,79.7-55.4
			C236.3,149.6,262.1,131.5,288,113.5z"/>
		<path class="st1" d="M287.9,113.5c-25.8,18.1-51.6,36.1-77.5,54.2c-26.6,18.5-53.2,36.8-79.7,55.4c-2.3,1.6-4,0.9-5.9-0.1
			c-17.9-8.7-35.7-17.5-53.7-26.1c-19.9-9.5-39.8-18.9-59.7-28.3c-7.3-3.4-9.8-9.1-7.7-17.1c0.5-1.8,1.2-2.6,2.7-3.5
			c13.8-7.4,28.8-11.8,43.3-17.5c26.1-10.1,52.3-20.1,78.4-30.1c38.7-14.8,77.5-29.3,116-44.6C284,40,324.1,25.2,364,9.7
			c8.4-3.3,16.4-8.1,26-7.6c5.8,0.3,8.7,3.1,9,8.7c0.5,9.9-3.9,18.4-7.3,27.1c-13.4,35.3-27,70.5-40.5,105.8
			c-13,34.1-26.1,68.1-39,102.2c-11.8,31.3-23.4,62.7-35.3,94c-6.7,17.6-13.7,35.1-20.5,52.7c-1.4,3.7-3.9,4.9-7.8,5.5
			c-10.2,1.5-13.3-4.7-17.2-12.4c-11.3-22.4-22-45-32.6-67.7c-6.2-13.3-13.2-26.3-19-39.8c-1.4-3.4-0.9-5.6,0.9-8.2
			c6.6-9.4,13.1-18.8,19.7-28.2c13.4-19.3,26.8-38.7,40.3-58.1c15.4-22,30.8-44,46.3-66c0.8-1.1,1.3-2.3,2-3.4
			c0.3-0.4,0.5-0.8,0.8-1.1c0.1-0.3,0.3-0.7,0.4-1c-0.4,0.1-0.7,0.2-1.1,0.4C288.6,112.8,288.3,113.1,287.9,113.5z"/>
		<path class="st0" d="M289,112.5c0.4-0.1,0.7-0.2,1.1-0.4c-0.1,0.3-0.3,0.7-0.4,1C289.4,112.9,289.2,112.7,289,112.5z"/>
		<path class="st0" d="M289.6,113.1c-0.3,0.4-0.5,0.8-0.8,1.1c-0.3-0.3-0.6-0.5-0.9-0.8c0.3-0.3,0.7-0.6,1-1
			C289.2,112.7,289.4,112.9,289.6,113.1z"/>
	</g>
</g>
</svg>
