<?xml version="1.0" encoding="utf-8"?>
<!-- Generator: Adobe Illustrator 24.3.0, SVG Export Plug-In . SVG Version: 6.00 Build 0)  -->
<svg version="1.1" id="Layer_1" xmlns="http://www.w3.org/2000/svg" xmlns:xlink="http://www.w3.org/1999/xlink" x="0px" y="0px"
	 viewBox="0 0 516 489.9" style="enable-background:new 0 0 516 489.9;" xml:space="preserve">
<style type="text/css">
	.st0{fill:#FEFEFE;}
	.st1{fill:#BE925B;}
</style>
<g>
	<path class="st0" d="M97.9,471.7c-0.4,10,4.3,14.8,12.4,15.3c5.2,0.3,9.4-1.8,13.6-4.2c43.2-25.7,86.5-51.2,129.5-77.2
		c5.6-3.4,9-3.4,14.7,0.1c39,24,78.3,47.5,117.5,70.9c6.3,3.7,12.2,8.2,19.4,10.2c10.9,3.1,19.8-5.5,17.3-16.7
		c-4.6-20.8-9.3-41.5-14-62.2c-6.9-30.6-13.7-61.3-20.7-91.9c-1.1-5-0.2-8.2,4.1-11.8c24.1-20.2,47.9-40.7,71.5-61.5
		c14.4-12.7,29.3-24.7,42.9-38.2c3-3,5.6-6.2,6.8-10.3c2.4-7.8-6.5-19.5-14.6-18.9c-16.4,1.2-32.5-1.6-48.7-2.8
		c-21.7-1.5-43.4-4.3-65.1-5.7c-13.3-0.9-26.5-2.4-39.7-4c-4.1-0.5-7.8-1.9-9.7-6.6c-8.2-19.8-16.8-39.5-25.3-59.2
		c-11.7-27.3-23.4-54.7-35.2-82c-2-4.6-4.6-8.9-8.5-12.2C265,2,264,1,262.3,1.4c-5.5,1.2-10.4,3.3-13.7,8.3
		c-2.7,4.1-4.6,8.5-6.5,12.9c-14.1,32.8-28.3,65.6-42.2,98.5c-5.4,12.8-12.2,25.2-14.7,39.1c-0.3,1.9-1.6,1.8-2.9,1.9
		c-6.9,0.8-14,0.5-20.8,1.4c-28.9,3.8-57.9,5.4-86.9,8.3c-18.4,1.9-36.7,3.4-55.1,5.4c-5.2,0.6-10.2,2.5-12.2,8.1
		c-1.9,5.3-0.8,9.7,2.8,14.3c6.9,8.7,15.3,15.7,23.6,22.8c32,27.7,63.7,55.6,95.8,83.2c4.3,3.7,7,6.6,3.4,12
		c-0.8,1.2-0.9,2.8-1.2,4.3c-8.7,38-17.6,76-26.1,114.1C102.7,448.5,99,460.8,97.9,471.7z"/>
	<path class="st1" d="M97.9,471.7c1.1-10.9,4.8-23.2,7.6-35.6c8.6-38.1,17.4-76.1,26.1-114.1c0.3-1.5,0.4-3.1,1.2-4.3
		c3.6-5.4,0.9-8.3-3.4-12c-32.1-27.6-63.8-55.5-95.8-83.2c-8.3-7.2-16.7-14.1-23.6-22.8c-3.6-4.6-4.7-9-2.8-14.3
		c2.1-5.6,7-7.5,12.2-8.1c18.3-2,36.7-3.5,55.1-5.4c28.9-2.9,58-4.5,86.9-8.3c6.8-0.9,13.9-0.7,20.8-1.4c1.3-0.1,2.6,0,2.9-1.9
		c2.5-13.9,9.3-26.3,14.7-39.1c13.9-32.9,28.1-65.7,42.2-98.5c1.9-4.4,3.9-8.8,6.5-12.9c3.3-5,8.2-7.1,13.7-8.3
		C264,1,265,2,266.2,2.9c3.9,3.3,6.5,7.6,8.5,12.2c11.8,27.3,23.5,54.7,35.2,82c8.5,19.7,17.1,39.4,25.3,59.2c2,4.7,5.6,6.1,9.7,6.6
		c13.2,1.5,26.4,3.1,39.7,4c21.7,1.5,43.4,4.2,65.1,5.7c16.2,1.1,32.4,4,48.7,2.8c8.1-0.6,17,11.1,14.6,18.9
		c-1.3,4.1-3.9,7.3-6.8,10.3c-13.6,13.5-28.6,25.5-42.9,38.2c-23.6,20.8-47.4,41.3-71.5,61.5c-4.4,3.7-5.3,6.8-4.1,11.8
		c7,30.6,13.8,61.2,20.7,91.9c4.7,20.7,9.4,41.5,14,62.2c2.5,11.2-6.4,19.8-17.3,16.7c-7.1-2-13.1-6.5-19.4-10.2
		c-39.3-23.5-78.6-46.9-117.5-70.9c-5.7-3.5-9.2-3.5-14.7-0.1c-43,26-86.3,51.5-129.5,77.2c-4.2,2.5-8.4,4.5-13.6,4.2
		C102.1,486.5,97.5,481.7,97.9,471.7z"/>
</g>
</svg>
