<?xml version="1.0" encoding="utf-8"?>
<!-- Generator: Adobe Illustrator 24.3.0, SVG Export Plug-In . SVG Version: 6.00 Build 0)  -->
<svg version="1.1" xmlns="http://www.w3.org/2000/svg" xmlns:xlink="http://www.w3.org/1999/xlink" x="0px" y="0px"
	 viewBox="0 0 353.7 293.9" style="enable-background:new 0 0 353.7 293.9;" xml:space="preserve">
<style type="text/css">
	.st0{fill:#FFFFFF;}
</style>
<g id="Layer_2">
</g>
<g id="Layer_1">
	<g>
	</g>
</g>
<g id="Layer_3">
	<g>
		<path class="st0" d="M44.9,114.8c-0.8-0.2-1.6-0.5-2.4-0.7c0.1-0.2,0.3-0.5,0.4-0.7C43.6,113.8,44.3,114.3,44.9,114.8z"/>
		<path class="st0" d="M44.9,114.8c-0.8-0.2-1.6-0.5-2.4-0.7c0.1-0.2,0.3-0.5,0.4-0.7C43.6,113.8,44.3,114.3,44.9,114.8z"/>
		<path class="st0" d="M44.9,114.8c-0.8-0.2-1.6-0.5-2.4-0.7c0.1-0.2,0.3-0.5,0.4-0.7C43.6,113.8,44.3,114.3,44.9,114.8z"/>
		<path class="st0" d="M40.5,178.8c-1.1,0-2.2,0-3.4-0.1c-0.1-0.2-0.1-0.3-0.2-0.5C38.1,178.4,39.3,178.6,40.5,178.8z"/>
		<path class="st0" d="M44.9,114.8c-0.8-0.2-1.6-0.5-2.4-0.7c0.1-0.2,0.3-0.5,0.4-0.7C43.6,113.8,44.3,114.3,44.9,114.8z"/>
		<path class="st0" d="M44.9,114.8c-0.8-0.2-1.6-0.5-2.4-0.7c0.1-0.2,0.3-0.5,0.4-0.7C43.6,113.8,44.3,114.3,44.9,114.8z"/>
		<path class="st0" d="M44.9,114.8c-0.8-0.2-1.6-0.5-2.4-0.7c0.1-0.2,0.3-0.5,0.4-0.7C43.6,113.8,44.3,114.3,44.9,114.8z"/>
		<path class="st0" d="M44.9,114.8c-0.8-0.2-1.6-0.5-2.4-0.7c0.1-0.2,0.3-0.5,0.4-0.7C43.6,113.8,44.3,114.3,44.9,114.8z"/>
		<path class="st0" d="M44.9,114.8c-0.8-0.2-1.6-0.5-2.4-0.7c0.1-0.2,0.3-0.5,0.4-0.7C43.6,113.8,44.3,114.3,44.9,114.8z"/>
		<path class="st0" d="M45.2,258.8c11-1.9,21.5-5.4,31.3-10.1c9.6-4.6,18.5-10.5,26.5-17.4c-30.7-3.4-56-24.4-65.9-52.6
			c1.1,0,2.2,0.1,3.4,0.1c0.8,0,1.7,0,2.5,0c7.9,0,15.6-0.5,23.3-1.4c-12.9-4.2-24.4-11.6-33.5-21.4c-13.1-14-21.1-32.8-21.3-53.4
			c10.1,4.4,20.5,8.2,31.1,11.4c0.8,0.2,1.6,0.5,2.4,0.7c-0.7-0.5-1.3-0.9-2-1.4C30.6,104,21,91,15.8,76.1c-2.8-8.1-4.4-16.9-4.4-26
			c0-10.8,2.1-21,6-30.3c1.1-2.6,2.2-5.1,3.6-7.5c1.6,2.5,3.3,4.9,5.1,7.3c5,6.9,10.5,13.4,16.5,19.5c14.6,14.9,31.7,27.3,50.6,36.4
			c12.6,6.1,26.1,10.8,40.1,13.8c7.9,1.7,16,2.9,24.2,3.5h0c2.3,0.2,4.6,0.3,6.9,0.4h0c1.7,0.1,3.4,0.1,5.1,0.1c0.6,0,1.3,0,1.9,0
			c0.8,0,1.6,0,2.5,0c-0.2-0.9-0.4-1.7-0.6-2.6c-1.2-5.3-1.8-10.7-1.8-16.4c0-28.6,16.2-53.5,40-65.9c1.7-0.9,3.5-1.7,5.3-2.5
			c3.4-1.5,6.9-2.6,10.5-3.6c4.5-1.2,9.2-1.9,14-2.2c1.2-0.1,2.4-0.1,3.7-0.1c0.2,0,0.5,0,0.8,0c0.2,0,0.4,0,0.6,0
			c4.1,0,8.2,0.4,12.1,1.1c7.9,1.4,15.3,3.9,22.1,7.5c7.5,4,14.2,9.2,19.9,15.4c0.2,0,0.5,0,0.8,0c2.2-0.1,4.4-0.3,6.5-0.6
			c0.2,0,0.3,0,0.5-0.1c2.2-0.3,4.5-0.7,6.6-1.2c12.5-3,23.8-9.3,32.8-18c-4.8,18.3-17.1,34-33,43.4c4.6-0.1,9.5-0.6,13.8-1.6
			c9.2-2,17.8-5.8,25.3-11c-6.4,16.1-18.4,29.3-33.7,37.2c-0.3,0.1-0.5,0.3-0.8,0.4c0.3,2.6,0.4,5.3,0.6,8c0.2,3.3,0.3,6.7,0.3,10.1
			c0,3.7-0.1,7.4-0.3,11.1c-0.2,2.9-0.4,5.7-0.7,8.5c-2.8,27.2-11.4,52.8-24.6,75.3c0,0,0,0.1,0,0.1c-13.1,24.8-31.5,46.3-53.8,63.1
			c-33,28.1-75.7,45.1-122.5,45.1c-13.3,0-26.5-1.1-39.2-3.1C50.3,286.3,23.5,277.4,0,263c4.6-0.1,9.1-0.3,13.6-0.6
			c3.7-0.3,28.5-3.2,32.2-3.6"/>
	</g>
</g>
</svg>
